<svg width="73" height="88" viewBox="0 0 73 88" fill="none" xmlns="http://www.w3.org/2000/svg">
<path d="M64.7107 28.3429L31.5168 3.98736C28.6267 1.86618 25.2053 0.587538 21.6324 0.293419C18.0595 -0.000700921 14.4751 0.701211 11.277 2.32121C8.07894 3.94121 5.39247 6.4159 3.51591 9.47048C1.63934 12.5251 0.646112 16.04 0.646521 19.625V68.3361C0.639588 71.9225 1.62835 75.4404 3.50269 78.4981C5.37703 81.5558 8.06336 84.0331 11.2625 85.6543C14.4616 87.2754 18.048 87.9766 21.6221 87.6799C25.1963 87.3832 28.6179 86.1001 31.5059 83.9737L64.718 59.6181C67.1749 57.8176 69.1729 55.4634 70.5502 52.7466C71.9275 50.0297 72.6452 47.0265 72.6452 43.9805C72.6452 40.9345 71.9275 37.9313 70.5502 35.2145C69.1729 32.4976 67.1749 30.1435 64.718 28.3429H64.7107ZM58.2397 50.7944L25.0458 75.1499C23.7865 76.0753 22.2952 76.6335 20.7376 76.7622C19.1801 76.891 17.6174 76.5854 16.2231 75.8794C14.8289 75.1734 13.6577 74.0946 12.8397 72.7629C12.0217 71.4313 11.589 69.8989 11.5896 68.3361V19.625C11.5728 18.0599 11.9989 16.5219 12.8185 15.1885C13.6382 13.8551 14.8181 12.7806 16.2221 12.0889C17.4109 11.4785 18.7269 11.1573 20.0631 11.1514C21.8538 11.1602 23.5948 11.7418 25.0313 12.8111L58.2251 37.1666C59.2956 37.9512 60.1662 38.977 60.7663 40.1609C61.3664 41.3447 61.6791 42.6533 61.6791 43.9805C61.6791 45.3078 61.3664 46.6163 60.7663 47.8002C60.1662 48.984 59.2956 50.0098 58.2251 50.7944H58.2397Z" fill="white"/>
</svg>
