<svg width="43" height="52" viewBox="0 0 43 52" fill="none" xmlns="http://www.w3.org/2000/svg">
<path d="M38.0532 16.6998L18.3365 2.23298C16.6199 0.973038 14.5876 0.213544 12.4653 0.0388414C10.3431 -0.135861 8.21397 0.281064 6.31437 1.24332C4.41477 2.20558 2.81905 3.67551 1.70439 5.48988C0.58974 7.30426 -0.000221229 9.39207 2.15032e-05 11.5215V40.4551C-0.0040961 42.5854 0.583215 44.675 1.69654 46.4913C2.80987 48.3075 4.40551 49.779 6.30575 50.7419C8.20599 51.7048 10.3362 52.1214 12.4592 51.9451C14.5822 51.7689 16.6146 51.0067 18.33 49.7436L38.0575 35.2768C39.5169 34.2073 40.7037 32.809 41.5218 31.1952C42.3398 29.5814 42.7661 27.7976 42.7661 25.9883C42.7661 24.179 42.3398 22.3952 41.5218 20.7814C40.7037 19.1676 39.5169 17.7693 38.0575 16.6998H38.0532ZM34.2095 30.0356L14.4929 44.5025C13.7448 45.0522 12.859 45.3837 11.9339 45.4602C11.0087 45.5367 10.0805 45.3551 9.25231 44.9358C8.42413 44.5164 7.72846 43.8756 7.24258 43.0846C6.75671 42.2937 6.49967 41.3834 6.50002 40.4551V11.5215C6.49008 10.5918 6.74314 9.67832 7.23001 8.8863C7.71687 8.09429 8.41771 7.45603 9.25169 7.04515C9.95778 6.68262 10.7395 6.49183 11.5332 6.48832C12.5969 6.49356 13.6309 6.83902 14.4842 7.47415L34.2009 21.941C34.8367 22.407 35.3538 23.0163 35.7103 23.7195C36.0667 24.4227 36.2525 25.2 36.2525 25.9883C36.2525 26.7767 36.0667 27.5539 35.7103 28.2571C35.3538 28.9603 34.8367 29.5696 34.2009 30.0356H34.2095Z" fill="#20282D"/>
</svg>
