<svg width="33" height="33" viewBox="0 0 33 33" fill="none" xmlns="http://www.w3.org/2000/svg">
<path d="M28.2097 1.05999C26.1631 1.05999 24.362 2.35409 23.6919 4.25399H19.0133C19.7643 3.54013 20.2365 2.5271 20.2365 1.39004C20.237 1.01794 20.0922 0.667661 19.8287 0.404156C19.4146 -0.0105315 18.7499 -0.121257 18.2197 0.14278L16.9796 0.763481C16.591 0.957251 16.1562 1.05999 15.7213 1.05999H13.5348C12.9637 1.05999 12.3904 1.19414 11.8779 1.44859L9.53434 2.61228L2.66129 0.321645V14.5743L9.47686 12.3023L10.5275 13.0907C11.1678 13.5714 11.962 13.836 12.763 13.836H18.6179C19.4982 13.836 20.2146 13.1195 20.2146 12.239C20.2146 12.0287 20.1715 11.8291 20.0975 11.6449C20.7762 11.4607 21.2791 10.8459 21.2791 10.1097C21.2791 9.69923 21.1189 9.3282 20.864 9.04499C21.1195 8.76179 21.2791 8.39076 21.2791 7.98033C21.2791 7.79295 21.2408 7.61515 21.1812 7.44799H23.6919C24.1033 8.6154 24.9437 9.55177 26.0045 10.1022L23.7132 16.0606C23.447 16.0005 23.1713 15.9653 22.8871 15.9653C21.2978 15.9653 19.941 16.9682 19.4072 18.3725L15.9635 17.607C15.9635 17.5916 15.9677 17.5778 15.9677 17.5623C15.9677 16.0947 14.7739 14.9007 13.3065 14.9007C11.839 14.9007 10.6452 16.0947 10.6452 17.5623C10.6452 17.6704 10.6643 17.7731 10.6771 17.878L7.05189 19.0864C6.43819 17.869 5.1794 17.03 3.72581 17.03C1.67182 17.03 0 18.7021 0 20.7563C0 22.8106 1.67182 24.4827 3.72581 24.4827C5.77979 24.4827 7.45161 22.8106 7.45161 20.7563C7.45161 20.5306 7.42819 20.3108 7.38934 20.0957L11.0124 18.8878C11.4739 19.6826 12.3239 20.224 13.3065 20.224C14.3869 20.224 15.3152 19.574 15.7314 18.6467L19.1757 19.4122C19.1687 19.5048 19.1613 19.5974 19.1613 19.6917C19.1613 21.7459 20.8331 23.418 22.8871 23.418C24.9411 23.418 26.6129 21.7459 26.6129 19.6917C26.6129 18.298 25.8427 17.0827 24.7069 16.4434L26.9977 10.486C27.3868 10.5877 27.7929 10.642 28.2097 10.642C30.8513 10.642 33 8.49243 33 5.85099C33 3.20955 30.8513 1.05999 28.2097 1.05999ZM3.72581 23.418C2.25837 23.418 1.06452 22.224 1.06452 20.7563C1.06452 19.2887 2.25837 18.0947 3.72581 18.0947C5.19324 18.0947 6.3871 19.2887 6.3871 20.7563C6.3871 22.224 5.19324 23.418 3.72581 23.418ZM13.3065 19.1593C12.4261 19.1593 11.7097 18.4428 11.7097 17.5623C11.7097 16.6818 12.4261 15.9653 13.3065 15.9653C14.1868 15.9653 14.9032 16.6818 14.9032 17.5623C14.9032 18.4428 14.1868 19.1593 13.3065 19.1593ZM25.5484 19.6917C25.5484 21.1593 24.3545 22.3533 22.8871 22.3533C21.4197 22.3533 20.2258 21.1593 20.2258 19.6917C20.2258 18.224 21.4197 17.03 22.8871 17.03C24.3545 17.03 25.5484 18.224 25.5484 19.6917ZM9.04839 11.3228L3.72581 13.0976V1.79834L9.04839 3.57261V11.3228ZM20.2146 7.98033C20.2146 8.27364 19.9762 8.51266 19.6824 8.51266H17.0323V9.57733H19.6824C19.9762 9.57733 20.2146 9.81635 20.2146 10.1097C20.2146 10.403 19.9762 10.642 19.6824 10.642H17.0323V11.7067H18.6179C18.9117 11.7067 19.1501 11.9457 19.1501 12.239C19.1501 12.5323 18.9117 12.7713 18.6179 12.7713H12.763C12.1908 12.7713 11.6235 12.5823 11.1657 12.239L10.1129 11.449V3.51352L12.3505 2.40254C12.7172 2.22101 13.1265 2.12466 13.5348 2.12466H15.7213C16.3206 2.12466 16.92 1.98306 17.4559 1.71529L18.695 1.09513C18.8238 1.03231 18.9787 1.05839 19.0761 1.15634C19.1384 1.21863 19.1725 1.30061 19.1725 1.44008C19.1725 2.99183 17.91 4.25399 16.3584 4.25399H14.3816V5.31866H26.0695C26.3633 5.31866 26.6017 5.55768 26.6017 5.85099C26.6017 6.14431 26.3633 6.38333 26.0695 6.38333H17.0323V7.44799H19.6824C19.9762 7.44799 20.2146 7.68701 20.2146 7.98033ZM27.1425 4.67613C27.4326 4.41369 27.8073 4.25399 28.2097 4.25399C29.09 4.25399 29.8065 4.97051 29.8065 5.85099C29.8065 6.73147 29.09 7.44799 28.2097 7.44799C27.8068 7.44799 27.432 7.28829 27.1425 7.02585C27.4624 6.7336 27.6662 6.31732 27.6662 5.85099C27.6662 5.38467 27.4624 4.96838 27.1425 4.67613ZM28.2097 9.57733C26.7502 9.57733 25.4552 8.72772 24.8479 7.44799H26.0695C26.0732 7.44799 26.0764 7.44693 26.0801 7.44693C26.5788 8.11181 27.3655 8.51266 28.2097 8.51266C29.6771 8.51266 30.871 7.31864 30.871 5.85099C30.871 4.38335 29.6771 3.18933 28.2097 3.18933C27.3655 3.18933 26.5794 3.59017 26.0806 4.25506C26.0769 4.25506 26.0732 4.25399 26.0695 4.25399H24.8479C25.4552 2.97426 26.7502 2.12466 28.2097 2.12466C30.2637 2.12466 31.9355 3.79619 31.9355 5.85099C31.9355 7.9058 30.2637 9.57733 28.2097 9.57733Z" fill="white"/>
<path d="M3.72581 19.1593C2.84545 19.1593 2.12903 19.8759 2.12903 20.7563C2.12903 21.6368 2.84545 22.3533 3.72581 22.3533C4.60616 22.3533 5.32258 21.6368 5.32258 20.7563C5.32258 19.8759 4.60616 19.1593 3.72581 19.1593ZM3.72581 21.2887C3.432 21.2887 3.19355 21.0502 3.19355 20.7563C3.19355 20.4625 3.432 20.224 3.72581 20.224C4.01961 20.224 4.25806 20.4625 4.25806 20.7563C4.25806 21.0502 4.01961 21.2887 3.72581 21.2887Z" fill="white"/>
<path d="M21.2903 19.6917C21.2903 20.5721 22.0067 21.2887 22.8871 21.2887C23.7675 21.2887 24.4839 20.5721 24.4839 19.6917C24.4839 18.8112 23.7675 18.0947 22.8871 18.0947C22.0067 18.0947 21.2903 18.8112 21.2903 19.6917ZM23.4194 19.6917C23.4194 19.9855 23.1809 20.224 22.8871 20.224C22.5933 20.224 22.3548 19.9855 22.3548 19.6917C22.3548 19.3978 22.5933 19.1593 22.8871 19.1593C23.1809 19.1593 23.4194 19.3978 23.4194 19.6917Z" fill="white"/>
<path d="M27.1452 31.9353H25.0161V24.4827H20.7581V31.9353H18.629V21.2887H14.371V31.9353H12.2419V21.2887H7.98387V31.9353H5.85484V25.5473H1.59677V33H31.4032V11.7067H27.1452V31.9353ZM4.79032 31.9353H2.66129V26.612H4.79032V31.9353ZM21.8226 25.5473H23.9516V31.9353H21.8226V25.5473ZM15.4355 22.3533H17.5645V31.9353H15.4355V22.3533ZM9.04839 22.3533H11.1774V31.9353H9.04839V22.3533ZM28.2097 12.7713H30.3387V31.9353H28.2097V12.7713Z" fill="white"/>
</svg>
