<svg width="34" height="35" viewBox="0 0 34 35" fill="none" xmlns="http://www.w3.org/2000/svg">
<path d="M16.9049 11.9262C16.7468 11.6818 16.4357 11.5967 16.1801 11.7279L12.7801 13.4779L13.2873 14.5215L16.2396 13.0019L17.0958 14.3237C17.2035 14.4912 17.3837 14.5833 17.5673 14.5833C17.6625 14.5833 17.7594 14.5588 17.8478 14.5063L20.9951 12.6548L21.6139 13.7165C21.717 13.8932 21.9017 14 22.1 14C22.1148 14 22.1301 13.9994 22.1454 13.9982C22.3601 13.9807 22.546 13.8396 22.6265 13.6337L23.7598 10.717C23.8295 10.5373 23.808 10.3337 23.7026 10.1733C23.5972 10.0129 23.4215 9.91667 23.2334 9.91667H20.4001C20.1961 9.91667 20.0079 10.0298 19.9071 10.2124C19.8062 10.395 19.809 10.6196 19.9144 10.7998L20.4125 11.6538L17.7452 13.2224L16.9049 11.9262ZM22.3964 11.0833L21.9981 12.1082L21.4014 11.0833H22.3964Z" fill="white"/>
<path d="M33.4333 12.8333H31.4205C31.3401 12.4588 31.2443 12.0896 31.1344 11.7273L32.8757 10.6925C33.0055 10.6149 33.1007 10.4877 33.1398 10.3384C33.1789 10.1891 33.1585 10.0298 33.0831 9.89567L30.8165 5.85433C30.6601 5.57492 30.3121 5.47925 30.0424 5.64083L28.2977 6.678C28.0478 6.398 27.7854 6.12792 27.5123 5.87008L28.5198 4.07342C28.6762 3.794 28.5833 3.43758 28.3124 3.27658L24.3865 0.94325C24.2562 0.865667 24.1009 0.844667 23.9564 0.884917C23.8114 0.924583 23.6873 1.02258 23.6125 1.15675L22.6072 2.94933C22.2559 2.83617 21.8972 2.73817 21.5334 2.65533V0.583333C21.5334 0.261333 21.2801 0 20.9667 0H16.4334C16.12 0 15.8667 0.261333 15.8667 0.583333V2.65533C15.5029 2.73817 15.1442 2.83675 14.7923 2.94992L13.7871 1.15675C13.7117 1.02317 13.5876 0.925167 13.4431 0.884917C13.2981 0.844083 13.1434 0.865667 13.013 0.94325L9.08717 3.27658C8.81574 3.43758 8.72281 3.79458 8.87977 4.07342L9.8873 5.87008C9.61473 6.12792 9.35237 6.398 9.1019 6.678L7.35714 5.64083C7.08628 5.47925 6.73948 5.57492 6.58308 5.85433L4.31642 9.89567C4.24106 10.0293 4.22122 10.1885 4.25976 10.3384C4.29829 10.4883 4.39349 10.6155 4.52382 10.6925L6.26518 11.7273C6.15525 12.089 6.05948 12.4588 5.97902 12.8333H3.96679C3.65343 12.8333 3.40013 13.0947 3.40013 13.4167V17.5H4.53346V14H6.44255C6.71568 14 6.95028 13.7987 6.99958 13.5222C7.11405 12.8829 7.27668 12.2547 7.48351 11.6556C7.57474 11.3902 7.46991 11.0962 7.23304 10.955L5.58178 9.97325L7.28178 6.94283L8.93644 7.92633C9.17387 8.0675 9.47307 8.01325 9.651 7.79975C10.0556 7.31208 10.5016 6.85242 10.9781 6.43358C11.185 6.251 11.2365 5.94242 11.1005 5.69858L10.1451 3.99525L13.089 2.24525L14.0426 3.94508C14.1786 4.18833 14.4648 4.29742 14.7232 4.20292C15.3052 3.99 15.9155 3.82258 16.536 3.70533C16.8046 3.65517 17.0001 3.41367 17.0001 3.1325V1.16667H20.4001V3.1325C20.4001 3.41367 20.5956 3.65517 20.8642 3.70592C21.4852 3.82317 22.0949 3.99058 22.6769 4.2035C22.9359 4.29742 23.2209 4.18892 23.3575 3.94567L24.3112 2.24583L27.255 3.99583L26.2996 5.69917C26.1636 5.94242 26.2152 6.25158 26.422 6.43417C26.8986 6.853 27.3445 7.31267 27.7491 7.80033C27.9259 8.01383 28.2263 8.06808 28.4637 7.92692L30.1183 6.94342L31.8183 9.97383L30.1671 10.9556C29.9302 11.0962 29.8248 11.3907 29.9166 11.6562C30.1229 12.2552 30.2855 12.8835 30.4005 13.5228C30.4493 13.7987 30.6839 14 30.9576 14H32.8667V17.5H30.9576C30.6844 17.5 30.4498 17.7013 30.4005 17.9777C30.2861 18.6171 30.1234 19.2453 29.9166 19.8444C29.8254 20.1098 29.9302 20.4038 30.1671 20.545L31.8183 21.5267L30.1183 24.5572L28.4637 23.5737C28.2263 23.4325 27.9265 23.4867 27.7491 23.7003C27.3445 24.1879 26.8986 24.6476 26.422 25.0664C26.2152 25.249 26.1636 25.5576 26.2996 25.8014L27.255 27.5047L24.3112 29.2547L23.3575 27.5549C23.2209 27.3111 22.9347 27.202 22.6769 27.2971C22.0949 27.51 21.4847 27.6774 20.8642 27.7947C20.5956 27.8448 20.4001 28.0863 20.4001 28.3675V30.3333H18.1334V31.5H20.9667C21.2801 31.5 21.5334 31.2387 21.5334 30.9167V28.8447C21.8972 28.7618 22.2559 28.6632 22.6078 28.5501L23.613 30.3427C23.6884 30.4762 23.8125 30.5742 23.957 30.6145C24.1015 30.6542 24.2562 30.6337 24.3871 30.5562L28.313 28.2228C28.5844 28.0618 28.6773 27.7048 28.5204 27.426L27.5128 25.6293C27.7854 25.3715 28.0478 25.1014 28.2982 24.8214L30.043 25.8586C30.3133 26.019 30.6606 25.9239 30.817 25.6451L33.0837 21.6037C33.1591 21.4702 33.1789 21.3109 33.1404 21.161C33.1018 21.0111 33.0066 20.8839 32.8763 20.8069L31.1349 19.7721C31.2449 19.4104 31.3406 19.0406 31.4211 18.6661H33.4333C33.7467 18.6661 34 18.4047 34 18.0828V13.4161C34 13.0947 33.7467 12.8333 33.4333 12.8333Z" fill="white"/>
<path d="M28.3334 15.75C28.3334 10.2818 24.012 5.83333 18.7001 5.83333C14.0761 5.83333 10.0958 9.2225 9.2362 13.8915L10.3497 14.1085C11.1085 9.98958 14.6201 7 18.7001 7C23.3869 7 27.2 10.9253 27.2 15.75C27.2 19.95 24.2959 23.5649 20.2941 24.3466L20.5055 25.4928C25.041 24.6067 28.3334 20.5094 28.3334 15.75Z" fill="white"/>
<path d="M2.83346 23.9167C2.83346 24.8716 2.98873 25.8008 3.27263 26.6817L1.36807 28.6423C1.26154 28.7519 1.20204 28.9001 1.20204 29.0547C1.20204 29.2092 1.26154 29.358 1.36807 29.4671L1.7687 29.8795L0.166174 31.5292C-0.0553914 31.7572 -0.0553914 32.1259 0.166174 32.354L2.56996 34.8291C2.68046 34.9428 2.82553 35 2.9706 35C3.11566 35 3.26073 34.9428 3.37123 34.8291L4.97432 33.1794L5.37495 33.5918C5.48148 33.7015 5.62485 33.7627 5.77558 33.7627C5.92632 33.7627 6.07025 33.7015 6.17622 33.5918L7.83371 31.8856C8.92 32.3919 10.1049 32.6667 11.3334 32.6667C13.6041 32.6667 15.7381 31.7561 17.3435 30.1035C18.9488 28.4509 19.8334 26.2541 19.8334 23.9167C19.8334 21.5792 18.9488 19.3824 17.3435 17.7298C15.7381 16.0772 13.6041 15.1667 11.3334 15.1667C9.0628 15.1667 6.92875 16.0772 5.32339 17.7298C3.71803 19.3824 2.83346 21.5792 2.83346 23.9167ZM2.9706 33.5918L1.36807 31.9416L2.56996 30.7037L4.17306 32.354L2.9706 33.5918ZM5.77558 32.3546L2.56996 29.0547L3.74296 27.8472C4.14586 28.6697 4.67172 29.4332 5.32282 30.1035C5.77275 30.5667 6.26802 30.9645 6.79218 31.3075L5.77558 32.3546ZM11.3334 16.3333C13.3015 16.3333 15.151 17.1226 16.5422 18.5547C17.9334 19.9867 18.7001 21.8913 18.7001 23.9167C18.7001 25.942 17.9334 27.8466 16.5422 29.2787C15.151 30.7108 13.3015 31.5 11.3334 31.5C9.3654 31.5 7.51581 30.7108 6.12465 29.2787C4.73349 27.8466 3.96679 25.942 3.96679 23.9167C3.96679 21.8913 4.73349 19.9867 6.12465 18.5547C7.51581 17.1226 9.3654 16.3333 11.3334 16.3333Z" fill="white"/>
<path d="M11.3334 30.3333C14.7702 30.3333 17.5667 27.4546 17.5667 23.9167C17.5667 20.3787 14.7702 17.5 11.3334 17.5C7.89661 17.5 5.10012 20.3787 5.10012 23.9167C5.10012 27.4546 7.89661 30.3333 11.3334 30.3333ZM11.3334 18.6667C14.1458 18.6667 16.4334 21.0222 16.4334 23.9167C16.4334 26.8112 14.1458 29.1667 11.3334 29.1667C8.52107 29.1667 6.23345 26.8112 6.23345 23.9167C6.23345 21.0222 8.52107 18.6667 11.3334 18.6667Z" fill="white"/>
<path d="M11.3334 21C11.6491 21 11.9539 21.0653 12.2401 21.1943L12.6934 20.125C12.2639 19.9313 11.806 19.8333 11.3334 19.8333C10.2539 19.8333 9.26284 20.3437 8.61344 21.2327L9.5201 21.9333C9.95247 21.3401 10.6138 21 11.3334 21Z" fill="white"/>
<path d="M22.6667 14.5833H23.8V19.8333H22.6667V14.5833Z" fill="white"/>
<path d="M20.4001 15.75H21.5334V19.8333H20.4001V15.75Z" fill="white"/>
</svg>
