<svg width="140" height="178" viewBox="0 0 140 178" fill="none" xmlns="http://www.w3.org/2000/svg">
<path d="M2.87929 0H0V2.88285H2.87929V0Z" fill="#20282D" fill-opacity="0.2"/>
<path d="M2.87929 17.4194H0V20.3023H2.87929V17.4194Z" fill="#20282D" fill-opacity="0.2"/>
<path d="M2.87929 34.8386H0V37.7215H2.87929V34.8386Z" fill="#20282D" fill-opacity="0.2"/>
<path d="M2.87929 52.2578H0V55.1407H2.87929V52.2578Z" fill="#20282D" fill-opacity="0.2"/>
<path d="M2.87929 69.6912H0V72.574H2.87929V69.6912Z" fill="#20282D" fill-opacity="0.2"/>
<path d="M2.87929 87.1104H0V89.9932H2.87929V87.1104Z" fill="#20282D" fill-opacity="0.2"/>
<path d="M2.87929 104.53H0V107.413H2.87929V104.53Z" fill="#20282D" fill-opacity="0.2"/>
<path d="M2.87929 121.963H0V124.846H2.87929V121.963Z" fill="#20282D" fill-opacity="0.2"/>
<path d="M2.87929 139.382H0V142.265H2.87929V139.382Z" fill="#20282D" fill-opacity="0.2"/>
<path d="M2.87929 156.802H0V159.684H2.87929V156.802Z" fill="#20282D" fill-opacity="0.2"/>
<path d="M2.87929 174.235H0V177.117H2.87929V174.235Z" fill="#20282D" fill-opacity="0.2"/>
<path d="M18.6391 0H15.7598V2.88285H18.6391V0Z" fill="#20282D" fill-opacity="0.2"/>
<path d="M18.6391 17.4194H15.7598V20.3023H18.6391V17.4194Z" fill="#20282D" fill-opacity="0.2"/>
<path d="M18.6391 34.8386H15.7598V37.7215H18.6391V34.8386Z" fill="#20282D" fill-opacity="0.2"/>
<path d="M18.6391 52.2578H15.7598V55.1407H18.6391V52.2578Z" fill="#20282D" fill-opacity="0.2"/>
<path d="M18.6391 69.6912H15.7598V72.574H18.6391V69.6912Z" fill="#20282D" fill-opacity="0.2"/>
<path d="M18.6391 87.1104H15.7598V89.9932H18.6391V87.1104Z" fill="#20282D" fill-opacity="0.2"/>
<path d="M18.6391 104.53H15.7598V107.413H18.6391V104.53Z" fill="#20282D" fill-opacity="0.2"/>
<path d="M18.6391 121.963H15.7598V124.846H18.6391V121.963Z" fill="#20282D" fill-opacity="0.2"/>
<path d="M18.6391 139.382H15.7598V142.265H18.6391V139.382Z" fill="#20282D" fill-opacity="0.2"/>
<path d="M18.6391 156.802H15.7598V159.684H18.6391V156.802Z" fill="#20282D" fill-opacity="0.2"/>
<path d="M18.6391 174.235H15.7598V177.117H18.6391V174.235Z" fill="#20282D" fill-opacity="0.2"/>
<path d="M34.3847 0H31.5054V2.88285H34.3847V0Z" fill="#20282D" fill-opacity="0.2"/>
<path d="M34.3847 17.4194H31.5054V20.3023H34.3847V17.4194Z" fill="#20282D" fill-opacity="0.2"/>
<path d="M34.3847 34.8386H31.5054V37.7215H34.3847V34.8386Z" fill="#20282D" fill-opacity="0.2"/>
<path d="M34.3847 52.2578H31.5054V55.1407H34.3847V52.2578Z" fill="#20282D" fill-opacity="0.2"/>
<path d="M34.3847 69.6912H31.5054V72.574H34.3847V69.6912Z" fill="#20282D" fill-opacity="0.2"/>
<path d="M34.3847 87.1104H31.5054V89.9932H34.3847V87.1104Z" fill="#20282D" fill-opacity="0.2"/>
<path d="M34.3847 104.53H31.5054V107.413H34.3847V104.53Z" fill="#20282D" fill-opacity="0.2"/>
<path d="M34.3847 121.963H31.5054V124.846H34.3847V121.963Z" fill="#20282D" fill-opacity="0.2"/>
<path d="M34.3847 139.382H31.5054V142.265H34.3847V139.382Z" fill="#20282D" fill-opacity="0.2"/>
<path d="M34.3847 156.802H31.5054V159.684H34.3847V156.802Z" fill="#20282D" fill-opacity="0.2"/>
<path d="M34.3847 174.235H31.5054V177.117H34.3847V174.235Z" fill="#20282D" fill-opacity="0.2"/>
<path d="M50.1439 0H47.2646V2.88285H50.1439V0Z" fill="#20282D" fill-opacity="0.2"/>
<path d="M50.1439 17.4194H47.2646V20.3023H50.1439V17.4194Z" fill="#20282D" fill-opacity="0.2"/>
<path d="M50.1439 34.8386H47.2646V37.7215H50.1439V34.8386Z" fill="#20282D" fill-opacity="0.2"/>
<path d="M50.1439 52.2578H47.2646V55.1407H50.1439V52.2578Z" fill="#20282D" fill-opacity="0.2"/>
<path d="M50.1439 69.6912H47.2646V72.574H50.1439V69.6912Z" fill="#20282D" fill-opacity="0.2"/>
<path d="M50.1439 87.1104H47.2646V89.9932H50.1439V87.1104Z" fill="#20282D" fill-opacity="0.2"/>
<path d="M50.1439 104.53H47.2646V107.413H50.1439V104.53Z" fill="#20282D" fill-opacity="0.2"/>
<path d="M50.1439 121.963H47.2646V124.846H50.1439V121.963Z" fill="#20282D" fill-opacity="0.2"/>
<path d="M50.1439 139.382H47.2646V142.265H50.1439V139.382Z" fill="#20282D" fill-opacity="0.2"/>
<path d="M50.1439 156.802H47.2646V159.684H50.1439V156.802Z" fill="#20282D" fill-opacity="0.2"/>
<path d="M50.1439 174.235H47.2646V177.117H50.1439V174.235Z" fill="#20282D" fill-opacity="0.2"/>
<path d="M65.9037 0H63.0244V2.88285H65.9037V0Z" fill="#20282D" fill-opacity="0.2"/>
<path d="M65.9037 17.4194H63.0244V20.3023H65.9037V17.4194Z" fill="#20282D" fill-opacity="0.2"/>
<path d="M65.9037 34.8386H63.0244V37.7215H65.9037V34.8386Z" fill="#20282D" fill-opacity="0.2"/>
<path d="M65.9037 52.2578H63.0244V55.1407H65.9037V52.2578Z" fill="#20282D" fill-opacity="0.2"/>
<path d="M65.9037 69.6912H63.0244V72.574H65.9037V69.6912Z" fill="#20282D" fill-opacity="0.2"/>
<path d="M65.9037 87.1104H63.0244V89.9932H65.9037V87.1104Z" fill="#20282D" fill-opacity="0.2"/>
<path d="M65.9037 104.53H63.0244V107.413H65.9037V104.53Z" fill="#20282D" fill-opacity="0.2"/>
<path d="M65.9037 121.963H63.0244V124.846H65.9037V121.963Z" fill="#20282D" fill-opacity="0.2"/>
<path d="M65.9037 139.382H63.0244V142.265H65.9037V139.382Z" fill="#20282D" fill-opacity="0.2"/>
<path d="M65.9037 156.802H63.0244V159.684H65.9037V156.802Z" fill="#20282D" fill-opacity="0.2"/>
<path d="M65.9037 174.235H63.0244V177.117H65.9037V174.235Z" fill="#20282D" fill-opacity="0.2"/>
<path d="M81.6635 0H78.7842V2.88285H81.6635V0Z" fill="#20282D" fill-opacity="0.2"/>
<path d="M81.6635 17.4194H78.7842V20.3023H81.6635V17.4194Z" fill="#20282D" fill-opacity="0.2"/>
<path d="M81.6635 34.8386H78.7842V37.7215H81.6635V34.8386Z" fill="#20282D" fill-opacity="0.2"/>
<path d="M81.6635 52.2578H78.7842V55.1407H81.6635V52.2578Z" fill="#20282D" fill-opacity="0.2"/>
<path d="M81.6635 69.6912H78.7842V72.574H81.6635V69.6912Z" fill="#20282D" fill-opacity="0.2"/>
<path d="M81.6635 87.1104H78.7842V89.9932H81.6635V87.1104Z" fill="#20282D" fill-opacity="0.2"/>
<path d="M81.6635 104.53H78.7842V107.413H81.6635V104.53Z" fill="#20282D" fill-opacity="0.2"/>
<path d="M81.6635 121.963H78.7842V124.846H81.6635V121.963Z" fill="#20282D" fill-opacity="0.2"/>
<path d="M81.6635 139.382H78.7842V142.265H81.6635V139.382Z" fill="#20282D" fill-opacity="0.2"/>
<path d="M81.6635 156.802H78.7842V159.684H81.6635V156.802Z" fill="#20282D" fill-opacity="0.2"/>
<path d="M81.6635 174.235H78.7842V177.117H81.6635V174.235Z" fill="#20282D" fill-opacity="0.2"/>
<path d="M97.4227 0H94.5435V2.88285H97.4227V0Z" fill="#20282D" fill-opacity="0.2"/>
<path d="M97.4227 17.4194H94.5435V20.3023H97.4227V17.4194Z" fill="#20282D" fill-opacity="0.2"/>
<path d="M97.4227 34.8386H94.5435V37.7215H97.4227V34.8386Z" fill="#20282D" fill-opacity="0.2"/>
<path d="M97.4227 52.2578H94.5435V55.1407H97.4227V52.2578Z" fill="#20282D" fill-opacity="0.2"/>
<path d="M97.4227 69.6912H94.5435V72.574H97.4227V69.6912Z" fill="#20282D" fill-opacity="0.2"/>
<path d="M97.4227 87.1104H94.5435V89.9932H97.4227V87.1104Z" fill="#20282D" fill-opacity="0.2"/>
<path d="M97.4227 104.53H94.5435V107.413H97.4227V104.53Z" fill="#20282D" fill-opacity="0.2"/>
<path d="M97.4227 121.963H94.5435V124.846H97.4227V121.963Z" fill="#20282D" fill-opacity="0.2"/>
<path d="M97.4227 139.382H94.5435V142.265H97.4227V139.382Z" fill="#20282D" fill-opacity="0.2"/>
<path d="M97.4227 156.802H94.5435V159.684H97.4227V156.802Z" fill="#20282D" fill-opacity="0.2"/>
<path d="M97.4227 174.235H94.5435V177.117H97.4227V174.235Z" fill="#20282D" fill-opacity="0.2"/>
<path d="M113.183 0H110.303V2.88285H113.183V0Z" fill="#20282D" fill-opacity="0.2"/>
<path d="M113.183 17.4194H110.303V20.3023H113.183V17.4194Z" fill="#20282D" fill-opacity="0.2"/>
<path d="M113.183 34.8386H110.303V37.7215H113.183V34.8386Z" fill="#20282D" fill-opacity="0.2"/>
<path d="M113.183 52.2578H110.303V55.1407H113.183V52.2578Z" fill="#20282D" fill-opacity="0.2"/>
<path d="M113.183 69.6912H110.303V72.574H113.183V69.6912Z" fill="#20282D" fill-opacity="0.2"/>
<path d="M113.183 87.1104H110.303V89.9932H113.183V87.1104Z" fill="#20282D" fill-opacity="0.2"/>
<path d="M113.183 104.53H110.303V107.413H113.183V104.53Z" fill="#20282D" fill-opacity="0.2"/>
<path d="M113.183 121.963H110.303V124.846H113.183V121.963Z" fill="#20282D" fill-opacity="0.2"/>
<path d="M113.183 139.382H110.303V142.265H113.183V139.382Z" fill="#20282D" fill-opacity="0.2"/>
<path d="M113.183 156.802H110.303V159.684H113.183V156.802Z" fill="#20282D" fill-opacity="0.2"/>
<path d="M113.183 174.235H110.303V177.117H113.183V174.235Z" fill="#20282D" fill-opacity="0.2"/>
<path d="M128.942 0H126.062V2.88285H128.942V0Z" fill="#20282D" fill-opacity="0.2"/>
<path d="M128.942 17.4194H126.062V20.3023H128.942V17.4194Z" fill="#20282D" fill-opacity="0.2"/>
<path d="M128.942 34.8386H126.062V37.7215H128.942V34.8386Z" fill="#20282D" fill-opacity="0.2"/>
<path d="M128.942 52.2578H126.062V55.1407H128.942V52.2578Z" fill="#20282D" fill-opacity="0.2"/>
<path d="M128.942 69.6912H126.062V72.574H128.942V69.6912Z" fill="#20282D" fill-opacity="0.2"/>
<path d="M128.942 87.1104H126.062V89.9932H128.942V87.1104Z" fill="#20282D" fill-opacity="0.2"/>
<path d="M128.942 104.53H126.062V107.413H128.942V104.53Z" fill="#20282D" fill-opacity="0.2"/>
<path d="M128.942 121.963H126.062V124.846H128.942V121.963Z" fill="#20282D" fill-opacity="0.2"/>
<path d="M128.942 139.382H126.062V142.265H128.942V139.382Z" fill="#20282D" fill-opacity="0.2"/>
<path d="M128.942 156.802H126.062V159.684H128.942V156.802Z" fill="#20282D" fill-opacity="0.2"/>
<path d="M128.942 174.235H126.062V177.117H128.942V174.235Z" fill="#20282D" fill-opacity="0.2"/>
</svg>
